<svg width="267" height="100" viewBox="0 0 267 100" fill="none" xmlns="http://www.w3.org/2000/svg">
<path d="M12.7245 93.2921C10.3387 93.2921 8.27095 92.8812 6.52132 92.0594C4.79821 91.2111 3.47274 90.0181 2.54491 88.4806C1.61708 86.943 1.15316 85.1271 1.15316 83.0329C1.15316 81.0447 1.59057 79.2818 2.46538 77.7443C3.3667 76.2067 4.58613 75.0138 6.12368 74.1655C7.68774 73.2907 9.46387 72.8533 11.4521 72.8533C13.4138 72.8533 15.1104 73.2642 16.5419 74.086C17.9999 74.9078 19.1133 76.0874 19.8821 77.625C20.6774 79.136 21.075 80.9121 21.075 82.9534V84.5042H7.91307C8.15165 85.7766 8.68184 86.6912 9.50364 87.2479C10.3254 87.8046 11.4653 88.0829 12.9234 88.0829C13.9307 88.0829 14.9778 87.9371 16.0647 87.6455C17.1781 87.3274 18.159 86.8768 19.0073 86.2936L20.7569 90.946C19.7495 91.6617 18.5168 92.2317 17.0588 92.6558C15.6008 93.08 14.156 93.2921 12.7245 93.2921ZM11.7702 77.4261C10.7098 77.4261 9.835 77.7443 9.14576 78.3805C8.48302 79.0167 8.05887 79.9445 7.87331 81.164H15.2694C15.1899 79.918 14.8453 78.9902 14.2356 78.3805C13.6524 77.7443 12.8306 77.4261 11.7702 77.4261ZM23.3291 92.8546V73.2907H30.2083V75.9549C30.8976 74.9475 31.7857 74.1787 32.8725 73.6486C33.9594 73.1184 35.1789 72.8533 36.5308 72.8533C38.8637 72.8533 40.5868 73.5425 41.7002 74.921C42.8401 76.2995 43.41 78.4203 43.41 81.2833V92.8546H36.332V81.5616C36.332 80.3687 36.1199 79.5204 35.6958 79.0167C35.2982 78.513 34.7017 78.2612 33.9064 78.2612C32.846 78.2612 31.9977 78.6058 31.3615 79.2951C30.7253 79.9578 30.4072 80.8591 30.4072 81.999V92.8546H23.3291ZM56.6295 93.2921C54.4292 93.2921 52.5072 92.8812 50.8636 92.0594C49.2466 91.2376 47.9874 90.0579 47.0861 88.5204C46.1847 86.9828 45.7341 85.1537 45.7341 83.0329C45.7341 80.9121 46.1847 79.0962 47.0861 77.5852C47.9874 76.0477 49.2466 74.8812 50.8636 74.086C52.5072 73.2642 54.4292 72.8533 56.6295 72.8533C57.9284 72.8533 59.2141 73.0388 60.4866 73.41C61.7855 73.7546 62.8459 74.245 63.6677 74.8812L61.7988 79.7325C61.1891 79.2553 60.4733 78.8842 59.6515 78.6191C58.8562 78.3275 58.1007 78.1817 57.385 78.1817C55.98 78.1817 54.8931 78.6058 54.1243 79.4541C53.3555 80.3024 52.9711 81.4953 52.9711 83.0329C52.9711 84.597 53.3555 85.8164 54.1243 86.6912C54.8931 87.5395 55.98 87.9637 57.385 87.9637C58.1007 87.9637 58.8562 87.8311 59.6515 87.566C60.4733 87.2744 61.1891 86.89 61.7988 86.4129L63.6677 91.2641C62.8459 91.9003 61.7855 92.404 60.4866 92.7751C59.1876 93.1197 57.9019 93.2921 56.6295 93.2921ZM74.6271 93.2921C72.4533 93.2921 70.5579 92.8812 68.9408 92.0594C67.3237 91.2376 66.0645 90.0579 65.1632 88.5204C64.2619 86.9828 63.8112 85.1669 63.8112 83.0727C63.8112 80.9519 64.2619 79.136 65.1632 77.625C66.0645 76.0874 67.3237 74.9078 68.9408 74.086C70.5579 73.2642 72.4533 72.8533 74.6271 72.8533C76.8009 72.8533 78.6963 73.2642 80.3134 74.086C81.9304 74.9078 83.1764 76.0874 84.0512 77.625C84.9525 79.136 85.4032 80.9519 85.4032 83.0727C85.4032 85.1669 84.9525 86.9828 84.0512 88.5204C83.1764 90.0579 81.9304 91.2376 80.3134 92.0594C78.6963 92.8812 76.8009 93.2921 74.6271 93.2921ZM74.6271 88.0829C75.6875 88.0829 76.5623 87.6853 77.2515 86.89C77.9408 86.0947 78.2854 84.8223 78.2854 83.0727C78.2854 81.2965 77.9408 80.0241 77.2515 79.2553C76.5623 78.46 75.6875 78.0624 74.6271 78.0624C73.5402 78.0624 72.6521 78.46 71.9629 79.2553C71.2736 80.0241 70.929 81.2965 70.929 83.0727C70.929 84.8223 71.2736 86.0947 71.9629 86.89C72.6521 87.6853 73.5402 88.0829 74.6271 88.0829ZM87.8512 92.8546V73.2907H94.7304V75.9549C95.4196 74.9475 96.3077 74.1787 97.3946 73.6486C98.4814 73.1184 99.7009 72.8533 101.053 72.8533C103.386 72.8533 105.109 73.5425 106.222 74.921C107.362 76.2995 107.932 78.4203 107.932 81.2833V92.8546H100.854V81.5616C100.854 80.3687 100.642 79.5204 100.218 79.0167C99.8202 78.513 99.2237 78.2612 98.4284 78.2612C97.368 78.2612 96.5197 78.6058 95.8835 79.2951C95.2473 79.9578 94.9292 80.8591 94.9292 81.999V92.8546H87.8512ZM121.43 93.2921C118.461 93.2921 116.26 92.6028 114.829 91.2243C113.397 89.8458 112.682 87.7648 112.682 84.9813V78.4998H109.023V73.2907H112.682V67.6044H119.76V73.2907H125.327V78.4998H119.76V84.7428C119.76 86.6514 120.727 87.6058 122.663 87.6058C122.981 87.6058 123.325 87.5793 123.696 87.5262C124.094 87.4467 124.531 87.3407 125.009 87.2081L125.963 92.2979C125.353 92.6161 124.637 92.8546 123.816 93.0137C122.994 93.1993 122.199 93.2921 121.43 93.2921ZM127.306 92.8546V73.2907H134.185V76.5911C135.087 74.3378 137.035 73.1051 140.031 72.893L141.979 72.734L142.377 78.6986L138.52 79.0565C137.115 79.189 136.094 79.5867 135.458 80.2494C134.822 80.8856 134.504 81.84 134.504 83.1124V92.8546H127.306ZM154.06 93.2921C151.674 93.2921 149.606 92.8812 147.857 92.0594C146.133 91.2111 144.808 90.0181 143.88 88.4806C142.952 86.943 142.488 85.1271 142.488 83.0329C142.488 81.0447 142.926 79.2818 143.801 77.7443C144.702 76.2067 145.921 75.0138 147.459 74.1655C149.023 73.2907 150.799 72.8533 152.787 72.8533C154.749 72.8533 156.446 73.2642 157.877 74.086C159.335 74.9078 160.448 76.0874 161.217 77.625C162.013 79.136 162.41 80.9121 162.41 82.9534V84.5042H149.248C149.487 85.7766 150.017 86.6912 150.839 87.2479C151.661 87.8046 152.801 88.0829 154.259 88.0829C155.266 88.0829 156.313 87.9371 157.4 87.6455C158.513 87.3274 159.494 86.8768 160.342 86.2936L162.092 90.946C161.085 91.6617 159.852 92.2317 158.394 92.6558C156.936 93.08 155.491 93.2921 154.06 93.2921ZM153.105 77.4261C152.045 77.4261 151.17 77.7443 150.481 78.3805C149.818 79.0167 149.394 79.9445 149.208 81.164H156.605C156.525 79.918 156.18 78.9902 155.571 78.3805C154.988 77.7443 154.166 77.4261 153.105 77.4261ZM185.568 92.8546V85.6176H192.924V92.8546H185.568ZM196.044 92.8546V73.2907H202.923V75.9151C203.533 74.9873 204.342 74.245 205.349 73.6883C206.383 73.1316 207.563 72.8533 208.888 72.8533C210.213 72.8533 211.353 73.1449 212.308 73.7281C213.289 74.3113 214.031 75.2126 214.534 76.432C215.197 75.2921 216.099 74.4173 217.238 73.8076C218.378 73.1714 219.638 72.8533 221.016 72.8533C223.296 72.8533 224.979 73.5425 226.066 74.921C227.18 76.273 227.736 78.3937 227.736 81.2833V92.8546H220.658V81.4821C220.658 80.3422 220.486 79.5204 220.141 79.0167C219.797 78.513 219.227 78.2612 218.431 78.2612C217.451 78.2612 216.695 78.6058 216.165 79.2951C215.661 79.9843 215.409 80.9652 215.409 82.2376V92.8546H208.331V81.4821C208.331 80.3422 208.159 79.5204 207.814 79.0167C207.47 78.513 206.9 78.2612 206.104 78.2612C205.15 78.2612 204.408 78.6058 203.878 79.2951C203.374 79.9843 203.122 80.9652 203.122 82.2376V92.8546H196.044ZM241.707 93.2921C239.321 93.2921 237.254 92.8812 235.504 92.0594C233.781 91.2111 232.455 90.0181 231.527 88.4806C230.6 86.943 230.136 85.1271 230.136 83.0329C230.136 81.0447 230.573 79.2818 231.448 77.7443C232.349 76.2067 233.569 75.0138 235.106 74.1655C236.67 73.2907 238.446 72.8533 240.435 72.8533C242.396 72.8533 244.093 73.2642 245.524 74.086C246.982 74.9078 248.096 76.0874 248.865 77.625C249.66 79.136 250.058 80.9121 250.058 82.9534V84.5042H236.896C237.134 85.7766 237.664 86.6912 238.486 87.2479C239.308 87.8046 240.448 88.0829 241.906 88.0829C242.913 88.0829 243.96 87.9371 245.047 87.6455C246.161 87.3274 247.142 86.8768 247.99 86.2936L249.739 90.946C248.732 91.6617 247.499 92.2317 246.041 92.6558C244.583 93.08 243.139 93.2921 241.707 93.2921ZM240.753 77.4261C239.692 77.4261 238.818 77.7443 238.128 78.3805C237.466 79.0167 237.041 79.9445 236.856 81.164H244.252C244.172 79.918 243.828 78.9902 243.218 78.3805C242.635 77.7443 241.813 77.4261 240.753 77.4261Z" fill="white"/>
<path d="M175.321 93.2921C172.935 93.2921 170.868 92.8812 169.118 92.0594C167.395 91.2111 166.069 90.0181 165.142 88.4806C164.214 86.943 163.75 85.1271 163.75 83.0329C163.75 81.0447 164.187 79.2818 165.062 77.7443C165.963 76.2067 167.183 75.0138 168.72 74.1655C170.284 73.2907 172.06 72.8533 174.049 72.8533C176.01 72.8533 177.707 73.2642 179.138 74.086C180.597 74.9078 181.71 76.0874 182.479 77.625C183.274 79.136 183.672 80.9121 183.672 82.9534V84.5042H170.51C170.748 85.7766 171.278 86.6912 172.1 87.2479C172.922 87.8046 174.062 88.0829 175.52 88.0829C176.527 88.0829 177.574 87.9371 178.661 87.6455C179.775 87.3274 180.756 86.8768 181.604 86.2936L183.353 90.946C182.346 91.6617 181.113 92.2317 179.655 92.6558C178.197 93.08 176.753 93.2921 175.321 93.2921ZM174.367 77.4261C173.306 77.4261 172.432 77.7443 171.742 78.3805C171.08 79.0167 170.655 79.9445 170.47 81.164H177.866C177.787 79.918 177.442 78.9902 176.832 78.3805C176.249 77.7443 175.427 77.4261 174.367 77.4261Z" fill="#FF001F"/>
<path d="M168.709 63.327H158.623C154.402 63.327 150.493 61.6855 147.522 58.714C146.584 57.7764 146.584 56.2907 147.522 55.431C148.459 54.4927 149.945 54.4927 150.805 55.431C152.916 57.5413 155.652 58.6361 158.623 58.6361H160.5C156.825 55.0401 154.636 50.114 154.636 44.72V10.1636C154.636 7.11421 152.213 4.69089 149.163 4.69089H106.164C103.114 4.69089 100.691 7.11421 100.691 10.1636V53.1634C100.691 56.2128 103.114 58.6361 106.164 58.6361H139.704C141.032 58.6361 142.049 59.6523 142.049 60.9816C142.049 62.3108 141.032 63.327 139.704 63.327H106.164C100.534 63.327 96 58.7927 96 53.1634V10.1636C96 4.53438 100.534 0 106.164 0H149.163C154.793 0 159.327 4.53438 159.327 10.1636V44.72C159.327 51.131 163.393 56.7595 169.413 58.7927C170.507 59.1836 171.132 60.2776 170.976 61.3725C170.82 62.4673 169.882 63.327 168.709 63.327Z" fill="#FF001F"/>
<path d="M135.404 35.3383H119.768C119.768 39.6383 123.286 43.1565 127.586 43.1565C131.886 43.1565 135.404 39.7162 135.404 35.3383Z" fill="#FF001F"/>
<path d="M123.364 26.4253C123.364 28.5844 121.614 30.3344 119.455 30.3344C117.295 30.3344 115.546 28.5844 115.546 26.4253C115.546 24.2669 117.295 22.5162 119.455 22.5162C121.614 22.5162 123.364 24.2669 123.364 26.4253Z" fill="#FF001F"/>
<path d="M139 26.4253C139 28.5844 137.25 30.3344 135.091 30.3344C132.932 30.3344 131.182 28.5844 131.182 26.4253C131.182 24.2669 132.932 22.5162 135.091 22.5162C137.25 22.5162 139 24.2669 139 26.4253Z" fill="#FF001F"/>
</svg>
